<svg width="78" height="107" viewBox="0 0 78 107" fill="none" xmlns="http://www.w3.org/2000/svg">
<path d="M4.93275 0.831243C14.0173 2.90742 23.1032 10.2795 31.8553 22.6466C37.996 31.3202 42.8035 40.7213 46.0025 47.7353C50.0966 47.4451 54.2017 48.1173 57.9894 49.6981C61.7771 51.279 65.1422 53.7246 67.8152 56.8392C70.4882 59.9538 72.3949 63.6509 73.3828 67.6346C74.3707 71.6183 74.4122 75.7779 73.5042 79.7806C70.463 93.0875 76.0175 100.595 76.2905 100.971C76.748 101.528 77.0151 102.216 77.0526 102.936C77.0902 103.655 76.8961 104.367 76.499 104.968C76.1266 105.593 75.5644 106.083 74.8943 106.366C74.2242 106.648 73.4812 106.71 72.7738 106.54L42.0656 99.5224C38.0659 98.6016 34.3372 96.7572 31.1781 94.1369C28.0191 91.5166 25.5173 88.1932 23.873 84.4326C22.2287 80.672 21.4877 76.5787 21.7091 72.4803C21.9305 68.3819 23.1083 64.3923 25.1482 60.8307C20.2201 54.9025 13.8407 46.4885 8.69556 37.1897C1.35814 23.9343 -1.33524 12.548 0.74094 3.46349C0.947752 2.55856 1.50557 1.77285 2.29169 1.27921C3.07781 0.78557 4.02782 0.62443 4.93275 0.831243ZM39.0079 49.2783C38.1317 47.4175 37.091 45.2948 35.876 42.9527C31.9354 44.4774 28.3244 46.7449 25.2393 49.6321C26.8211 51.7438 28.281 53.6033 29.5763 55.2008C32.2553 52.5683 35.473 50.5477 39.0079 49.2783ZM21.1216 43.889C24.4906 40.8965 28.3329 38.4837 32.4918 36.7491C26.1988 25.7967 17.2005 13.3286 7.08133 8.90666C6.66856 19.9421 13.9902 33.4631 21.1216 43.889Z" fill="#2C9BD9"/>
</svg>
