<svg width="95" height="104" viewBox="0 0 95 104" fill="none" xmlns="http://www.w3.org/2000/svg">
<path d="M89.6665 0.6666H56.9998C54.3281 0.655654 51.7375 1.58457 49.6815 3.29081C47.6255 4.99705 46.2349 7.37194 45.7532 9.99993L41.4598 33.5666C41.1631 35.2085 41.2308 36.8956 41.6582 38.5084C42.0856 40.1212 42.8623 41.6204 43.9332 42.8999C45.01 44.18 46.3525 45.2105 47.8675 45.9196C49.3825 46.6288 51.0337 46.9997 52.7065 47.0066H66.3332L65.1665 50.0866C64.3052 52.3703 64.006 54.8278 64.2942 57.2515C64.5825 59.6752 65.4496 61.9939 66.8224 64.012C68.1953 66.0301 70.0335 67.6882 72.182 68.8465C74.3304 70.0047 76.726 70.629 79.1665 70.6666C80.0721 70.6738 80.9602 70.4172 81.7226 69.9283C82.4849 69.4395 83.0885 68.7393 83.4598 67.9133L93.9132 44.2999C94.1512 43.7855 94.2935 43.232 94.3332 42.6666V5.33327C94.3332 4.09559 93.8415 2.9086 92.9663 2.03343C92.0912 1.15826 90.9042 0.6666 89.6665 0.6666ZM84.9998 41.4066L76.4598 60.6799C75.6264 60.2264 74.9079 59.5878 74.3598 58.8133C73.8106 58.0359 73.4634 57.1341 73.3493 56.1891C73.2353 55.2442 73.358 54.2857 73.7065 53.3999L75.4798 48.7333C75.9464 47.523 76.1053 46.2158 75.9424 44.929C75.7795 43.6421 75.2999 42.4158 74.5465 41.3599C73.8046 40.3081 72.8179 39.4526 71.6715 38.8672C70.5251 38.2818 69.2536 37.9842 67.9665 37.9999H52.6132C52.3032 38.0008 51.9966 37.9345 51.7147 37.8056C51.4327 37.6767 51.182 37.4883 50.9798 37.2533C50.6176 36.7556 50.4666 36.135 50.5598 35.5266L54.8532 12.1933C54.8331 11.904 54.8744 11.6138 54.9746 11.3418C55.0747 11.0697 55.2313 10.8219 55.4341 10.6147C55.6369 10.4075 55.8813 10.2456 56.1511 10.1396C56.421 10.0337 56.7102 9.98606 56.9998 9.99993H84.9998V41.4066ZM33.3865 56.8999H19.8998L21.0665 53.8199C21.9154 51.5228 22.1971 49.0548 21.8879 46.6255C21.5787 44.1962 20.6876 41.8774 19.2903 39.8663C17.893 37.8551 16.0309 36.211 13.8621 35.0736C11.6934 33.9362 9.28207 33.3392 6.83317 33.3333C5.92756 33.3261 5.03943 33.5826 4.27708 34.0715C3.51474 34.5604 2.91112 35.2606 2.53984 36.0866L-7.9135 59.6999C-8.18092 60.2865 -8.32392 60.922 -8.3335 61.5666V98.8999C-8.3335 100.138 -7.84183 101.325 -6.96666 102.2C-6.09149 103.075 -4.90451 103.567 -3.66683 103.567H28.9998C31.6716 103.578 34.2621 102.649 36.3182 100.942C38.3742 99.2362 39.7647 96.8613 40.2465 94.2333L44.5398 70.8999C44.8366 69.258 44.7688 67.571 44.3414 65.9581C43.914 64.3453 43.1374 62.8461 42.0665 61.5666C41.0546 60.1955 39.7513 59.0658 38.2504 58.2589C36.7495 57.4519 35.0883 56.9878 33.3865 56.8999ZM31.1465 92.2733C31.0664 92.776 30.8024 93.231 30.4057 93.55C30.0091 93.8691 29.508 94.0294 28.9998 93.9999H0.999837V62.5933L9.53984 43.3199C10.3733 43.7734 11.0917 44.412 11.6398 45.1866C12.189 45.964 12.5363 46.8658 12.6503 47.8107C12.7644 48.7557 12.6416 49.7142 12.2932 50.5999L10.5198 55.2666C10.0533 56.4769 9.89438 57.784 10.0573 59.0709C10.2202 60.3577 10.6998 61.584 11.4532 62.6399C12.1847 63.709 13.1668 64.5827 14.3138 65.1847C15.4608 65.7866 16.7378 66.0986 18.0332 66.0933H33.3865C33.6965 66.0924 34.003 66.1587 34.285 66.2876C34.567 66.4165 34.8176 66.6049 35.0198 66.8399C35.3821 67.3376 35.5331 67.9582 35.4398 68.5666L31.1465 92.2733Z" fill="#2C9BD9"/>
</svg>
