<svg width="80" height="104" viewBox="0 0 80 104" fill="none" xmlns="http://www.w3.org/2000/svg">
<path d="M-11 77H-4V84H-18V14H-25V91H-4V98H-32V7H-18V0H3C6.20833 0 9.28906 0.492188 12.2422 1.47656C15.1953 2.46094 17.9479 3.9375 20.5 5.90625C23.0156 3.9375 25.75 2.46094 28.7031 1.47656C31.6562 0.492188 34.7552 0 38 0H59V7H73V51.7891L66 48.6172V14H59V45.4453L52 42.2188V7H38C35.4115 7 32.9323 7.4375 30.5625 8.3125C28.1927 9.1875 26.0052 10.4818 24 12.1953V45.4453L17 48.6172V12.1953C15.0312 10.5182 12.862 9.24219 10.4922 8.36719C8.12239 7.49219 5.625 7.03646 3 7H-11V77ZM66 90.9453L41.5 103.25L17 90.9453C17 89.6328 17.0182 88.2474 17.0547 86.7891C17.0911 85.3307 17.237 83.8542 17.4922 82.3594C17.7474 80.8646 18.112 79.4609 18.5859 78.1484C19.0599 76.8359 19.7161 75.6146 20.5547 74.4844L10 69.6719V101.5H3V66.5L41.5 49L80 66.5L62.4453 74.4844L62.8828 75.0859C63.6484 76.2161 64.2318 77.4375 64.6328 78.75C65.0339 80.0625 65.3438 81.3932 65.5625 82.7422C65.7812 84.0911 65.9089 85.4766 65.9453 86.8984C65.9818 88.3203 66 89.6693 66 90.9453ZM41.5 56.6562L19.8984 66.5L41.5 76.3438L63.1016 66.5L41.5 56.6562ZM41.5 95.4297L59 86.625C58.9635 85.6771 58.8906 84.8203 58.7812 84.0547C58.6719 83.2891 58.4714 82.5417 58.1797 81.8125C57.888 81.0833 57.5964 80.3724 57.3047 79.6797C57.013 78.987 56.5938 78.2214 56.0469 77.3828L41.5 84L26.9531 77.3828C26.4062 78.2578 25.9688 79.0417 25.6406 79.7344C25.3125 80.4271 25.0208 81.1198 24.7656 81.8125C24.5104 82.5052 24.3464 83.2344 24.2734 84C24.2005 84.7656 24.1276 85.6589 24.0547 86.6797L41.5 95.4297Z" fill="#2C9BD9"/>
</svg>
