<svg width="112" height="118" viewBox="0 0 112 118" fill="none" xmlns="http://www.w3.org/2000/svg">
<path d="M56.504 101.143H11.2V22.4762H0V101.143C0 104.123 1.18 106.982 3.2804 109.089C5.38081 111.197 8.22958 112.381 11.2 112.381H60.536C58.4765 108.934 57.1069 105.116 56.504 101.143ZM89.6 0H61.6V28.0952L50.4 19.6667L39.2 28.0952V0H33.6C30.6296 0 27.7808 1.18401 25.6804 3.29156C23.58 5.39911 22.4 8.25757 22.4 11.2381V78.6667C22.4 81.6472 23.58 84.5056 25.6804 86.6132C27.7808 88.7207 30.6296 89.9048 33.6 89.9048H56.504C57.3195 85.0591 59.1809 80.4508 61.9578 76.4028C64.7348 72.3548 68.3601 68.9648 72.5799 66.4703C76.7997 63.9759 81.5119 62.4372 86.3867 61.9621C91.2614 61.487 96.1806 62.087 100.8 63.72V11.2381C100.8 8.25757 99.62 5.39911 97.5196 3.29156C95.4192 1.18401 92.5704 0 89.6 0ZM95.2 73.0476V89.9048H112V101.143H95.2V118H84V101.143H67.2V89.9048H84V73.0476H95.2Z" fill="#2C9BD9"/>
</svg>

